<?xml version="1.0" encoding="utf-8"?>
<!-- Generator: Adobe Illustrator 25.1.0, SVG Export Plug-In . SVG Version: 6.00 Build 0)  -->
<svg version="1.1" id="Layer_1" xmlns="http://www.w3.org/2000/svg" xmlns:xlink="http://www.w3.org/1999/xlink" x="0px" y="0px"
	 viewBox="0 0 301.3 82.4" style="enable-background:new 0 0 301.3 82.4;" xml:space="preserve">
<style type="text/css">
	.st0{display:none;enable-background:new    ;}
	.st1{display:inline;fill:#151B26;}
	.st2{fill:#4B2873;}
	.st3{fill:#735B91;}
	.st4{fill:#8666AA;}
	.st5{fill:none;stroke:#000000;stroke-width:0.5;stroke-linecap:round;stroke-linejoin:round;}
</style>
<g class="st0">
	<path class="st1" d="M115.8,67.5c-10.7,0-18.3-5.7-18.3-15.1h9.5c0.6,4.4,3.2,7.6,9.5,7.6s9.5-3.2,9.5-7.6c0-12.6-27.8-4.4-27.8-24
		c0-9.5,7.6-15.1,18.3-15.1c10.1,0,17,5,17.7,14.5h-9.5c0-3.8-3.2-6.9-8.8-6.9c-5,0-8.8,2.5-8.8,7.6c0,12,27.8,4.4,27.8,24
		C134.1,59.9,127.8,67.5,115.8,67.5z"/>
	<path class="st1" d="M139.8,25.2h8.8l8.8,33.4l8.8-33.4h8.8l8.2,33.4l8.8-33.4h8.2L187,66.8h-8.8L170,35.9l-8.2,30.9h-9.5
		L139.8,25.2z"/>
	<path class="st1" d="M223.7,24.6c6.9,0,12,3.2,14.5,6.9v-6.3h8.8v41.6h-8.8v-6.3c-2.5,3.8-7.6,6.9-14.5,6.9
		c-10.7,0-19.6-8.8-19.6-21.4S213,24.6,223.7,24.6z M225.6,32.1c-6.3,0-12.6,5-12.6,13.9s6.3,14.5,12.6,14.5s12.6-5,12.6-13.9
		C238.2,37.2,231.9,32.1,225.6,32.1z"/>
	<path class="st1" d="M281.8,24.6c10.7,0,19.6,7.7,19.6,20.1s-8.8,20.1-19.6,20.1c-6.9,0-12-3.5-14.5-6.5v24.2h-8.8V25.2h8.8v5.9
		C269.8,28.1,274.8,24.6,281.8,24.6z M279.9,31.7c-6.3,0-12.6,4.7-12.6,13s6.3,13,12.6,13c6.3,0,12.6-4.7,12.6-13.6
		C292.5,36.4,286.2,31.7,279.9,31.7z"/>
</g>
<g>
	<g>
		<g>
			<path class="st2" d="M90.9,39.6l-6-0.9c1.4-8.1,8.5-14.3,17.1-14.3c4.4,0,8.5,1.6,11.7,4.6l-4.1,4.4c-2.1-1.9-4.8-3-7.6-3
				C96.5,30.4,91.9,34.4,90.9,39.6z M113.7,54.4c-3.2,3-7.4,4.6-11.8,4.6c-8.5,0-15.6-6.2-17.1-14.3l6-0.9c1,5.2,5.6,9.2,11.1,9.2
				c2.8,0,5.6-1.1,7.7-3L113.7,54.4z"/>
			<path class="st2" d="M121.1,25.3h6v32.9h-6V25.3z"/>
			<path class="st2" d="M167.1,58.2H160L152.4,48h-9.9v10.1h-6V25.3h17.3c6.3,0,11.5,5.1,11.5,11.4c0,4.5-2.7,8.4-6.5,10.2
				L167.1,58.2z M159.1,36.7c0-3-2.5-5.5-5.6-5.5h-11v11h11C156.6,42.2,159.1,39.7,159.1,36.7z"/>
			<path class="st2" d="M203.4,31v-5.7h29.1V31H203.4z M215,36.7l6-2.1v23.5h-6V36.7z"/>
			<path class="st2" d="M296.8,49.2c0,7.3-6.9,9.7-14,9.7c-4.9,0-9.1-1.2-13.4-3.6l3-4.8c3.3,1.9,7.1,3,10.7,3
				c4.5,0,7.4-1.2,7.4-3.9c0-3-4-4.2-8.4-5.5c-4.7-1.4-9.8-3-11.5-7.2l6.2-1.8c1.2,1.9,4.5,2.8,8.2,4
				C290.5,40.8,296.8,43,296.8,49.2z M276.6,32.3l-6-1.7c0.5-1.3,1.5-2.4,2.7-3.3c2.3-1.7,5.8-2.6,10.1-2.6c4.5,0,8.4,1.1,12.7,3.6
				l-3,4.7c-3.4-1.9-6.5-2.9-10-2.9C279.5,30,277.4,30.9,276.6,32.3z"/>
		</g>
		<polygon class="st2" points="190.3,25.3 182.3,25.3 169.1,58.2 175.3,58.2 178.3,50.8 178.3,50.8 186.3,30.7 197.3,58.2 
			203.4,58.2 		"/>
	</g>
	<g>
		<g>
			<g>
				<g id="XMLID_11_">
					<g>
						<polygon class="st3" points="34.2,35.4 63.6,22.6 63.6,59 34.1,72.4 						"/>
						<polygon class="st4" points="63.6,22.6 34.2,35.4 4.5,22.8 34.1,11.9 						"/>
						<polygon class="st4" points="4.5,22.8 34.2,35.4 34.1,72.4 4.5,58.9 						"/>
					</g>
					<g>
					</g>
				</g>
			</g>
			<path class="st5" d="M19.8,17.2"/>
		</g>
		<polygon class="st2" points="34.2,40.6 50.3,34.1 50.3,28.4 19.8,17.2 4.5,22.8 4.5,58.9 34.2,72.4 50.3,65.1 50.3,51.6 
			34.1,57.5 19.4,51.1 19.4,35.4 		"/>
	</g>
	<path class="st2" d="M249.7,31l-5.8,14.5h7.2l2.2,5.5h-11.6l-3,7.4h-6.2l13.1-32.9h7.9l13.1,32.9h-6.2L249.7,31z"/>
</g>
</svg>
