<?xml version="1.0" encoding="utf-8"?>
<!-- Generator: Adobe Illustrator 25.1.0, SVG Export Plug-In . SVG Version: 6.00 Build 0)  -->
<svg version="1.1" id="Layer_1" xmlns="http://www.w3.org/2000/svg" xmlns:xlink="http://www.w3.org/1999/xlink" x="0px" y="0px"
	 viewBox="0 0 301.3 82.4" style="enable-background:new 0 0 301.3 82.4;" xml:space="preserve">
<style type="text/css">
	.st0{display:none;enable-background:new    ;}
	.st1{display:inline;fill:#151B26;}
	.st2{fill:#FFFFFF;}
</style>
<g class="st0">
	<path class="st1" d="M115.8,67.5c-10.7,0-18.3-5.7-18.3-15.1h9.5c0.6,4.4,3.2,7.6,9.5,7.6s9.5-3.2,9.5-7.6c0-12.6-27.8-4.4-27.8-24
		c0-9.5,7.6-15.1,18.3-15.1c10.1,0,17,5,17.7,14.5h-9.5c0-3.8-3.2-6.9-8.8-6.9c-5,0-8.8,2.5-8.8,7.6c0,12,27.8,4.4,27.8,24
		C134.1,59.9,127.8,67.5,115.8,67.5z"/>
	<path class="st1" d="M139.8,25.2h8.8l8.8,33.4l8.8-33.4h8.8l8.2,33.4l8.8-33.4h8.2L187,66.8h-8.8L170,35.9l-8.2,30.9h-9.5
		L139.8,25.2z"/>
	<path class="st1" d="M223.7,24.6c6.9,0,12,3.2,14.5,6.9v-6.3h8.8v41.6h-8.8v-6.3c-2.5,3.8-7.6,6.9-14.5,6.9
		c-10.7,0-19.6-8.8-19.6-21.4S213,24.6,223.7,24.6z M225.6,32.1c-6.3,0-12.6,5-12.6,13.9s6.3,14.5,12.6,14.5s12.6-5,12.6-13.9
		C238.2,37.2,231.9,32.1,225.6,32.1z"/>
	<path class="st1" d="M281.8,24.6c10.7,0,19.6,7.7,19.6,20.1s-8.8,20.1-19.6,20.1c-6.9,0-12-3.5-14.5-6.5v24.2h-8.8V25.2h8.8v5.9
		C269.8,28.1,274.8,24.6,281.8,24.6z M279.9,31.7c-6.3,0-12.6,4.7-12.6,13s6.3,13,12.6,13c6.3,0,12.6-4.7,12.6-13.6
		C292.5,36.4,286.2,31.7,279.9,31.7z"/>
</g>
<g>
	<g>
		<g>
			<g id="XMLID_6_">
				<g>
					<g>
						<path class="st2" d="M37.9,35.3c-0.1,0-0.1,0-0.2,0L9.7,23.4c-0.2-0.1-0.3-0.2-0.2-0.4c0-0.2,0.1-0.3,0.3-0.4l28-10.3
							c0.1,0,0.2,0,0.3,0l28,10.1c0.2,0.1,0.3,0.2,0.3,0.4c0,0.2-0.1,0.3-0.2,0.4L38.1,35.3C38,35.3,38,35.3,37.9,35.3z M10.9,23
							l27,11.4l26.7-11.7l-26.9-9.7L10.9,23z"/>
					</g>
					<g>
						<path class="st2" d="M37.8,70.4c-0.1,0-0.1,0-0.2,0l-28-12.8c-0.1-0.1-0.2-0.2-0.2-0.4V23c0-0.2,0.2-0.4,0.4-0.4
							c0.2,0,0.4,0.2,0.4,0.4V57l27.6,12.6L65.4,57V22.8c0-0.2,0.2-0.4,0.4-0.4c0.2,0,0.4,0.2,0.4,0.4v34.5c0,0.2-0.1,0.3-0.2,0.4
							L38,70.4C37.9,70.4,37.9,70.4,37.8,70.4z"/>
					</g>
					<g>
						<path class="st2" d="M37.8,70.4C37.8,70.4,37.8,70.4,37.8,70.4c-0.2,0-0.4-0.2-0.4-0.4l0.1-35.1c0-0.2,0.2-0.4,0.4-0.4
							c0,0,0,0,0,0c0.2,0,0.4,0.2,0.4,0.4L38.2,70C38.2,70.2,38,70.4,37.8,70.4z"/>
					</g>
				</g>
			</g>
		</g>
		<g>
			<g>
				<path class="st2" d="M24.3,17.7"/>
			</g>
		</g>
	</g>
	<g>
		<g>
			<polygon class="st2" points="37.9,40.5 53.2,33.8 53.2,28.3 24.3,17.7 9.8,23 9.8,57.2 37.9,70 53.2,63 53.2,50.3 37.8,55.9 
				23.9,49.8 23.9,35 			"/>
		</g>
	</g>
</g>
<g>
	<g>
		<g>
			<path class="st2" d="M91.7,39L86,38.1c1.4-7.7,8.1-13.6,16.2-13.6c4.1,0,8.1,1.5,11.1,4.4l-3.9,4.2c-2-1.8-4.6-2.8-7.3-2.8
				C97,30.3,92.7,34,91.7,39z M113.4,53.1c-3.1,2.8-7,4.4-11.2,4.4c-8.1,0-14.8-5.9-16.2-13.6l5.7-0.9c0.9,4.9,5.3,8.7,10.5,8.7
				c2.7,0,5.3-1,7.3-2.9L113.4,53.1z"/>
			<path class="st2" d="M120.4,25.4h5.7v31.2h-5.7V25.4z"/>
			<path class="st2" d="M164.1,56.6h-6.8l-7.2-9.6h-9.4v9.6h-5.7V25.4h16.4c6,0,10.9,4.8,10.9,10.8c0,4.3-2.5,8-6.2,9.7L164.1,56.6z
				 M156.5,36.2c0-2.9-2.4-5.2-5.3-5.2h-10.5v10.5h10.5C154.1,41.4,156.5,39.1,156.5,36.2z"/>
			<path class="st2" d="M198.6,30.8v-5.4h27.6v5.4H198.6z M209.5,36.2l5.7-2v22.3h-5.7V36.2z"/>
			<path class="st2" d="M287.3,48.1c0,6.9-6.6,9.2-13.3,9.2c-4.6,0-8.7-1.1-12.8-3.5l2.9-4.6c3.2,1.8,6.8,2.8,10.1,2.8
				c4.3,0,7.1-1.1,7.1-3.7c0-2.9-3.8-4-7.9-5.2c-4.4-1.4-9.3-2.9-11-6.9l5.8-1.7c1.1,1.8,4.3,2.7,7.8,3.8
				C281.3,40.1,287.3,42.2,287.3,48.1z M268.1,32l-5.7-1.6c0.5-1.2,1.4-2.3,2.6-3.2c2.2-1.6,5.5-2.5,9.6-2.5c4.3,0,8,1.1,12.1,3.5
				l-2.8,4.5c-3.2-1.8-6.2-2.8-9.5-2.8C270.9,29.9,268.8,30.7,268.1,32z"/>
		</g>
	</g>
	<polygon class="st2" points="186.1,25.4 178.5,25.4 166,56.6 171.9,56.6 174.7,49.6 174.7,49.6 182.3,30.6 192.7,56.6 198.6,56.6 	
		"/>
</g>
<path class="st2" d="M242.6,30.8L237,44.6h6.8l2.1,5.2h-11l-2.8,7h-5.8l12.5-31.2h7.5l12.5,31.2H253L242.6,30.8z"/>
</svg>
