<?xml version="1.0" encoding="utf-8"?>
<!-- Generator: Adobe Illustrator 25.1.0, SVG Export Plug-In . SVG Version: 6.00 Build 0)  -->
<svg version="1.1" id="Layer_1" xmlns="http://www.w3.org/2000/svg" xmlns:xlink="http://www.w3.org/1999/xlink" x="0px" y="0px"
	 viewBox="0 0 300 300" style="enable-background:new 0 0 300 300;" xml:space="preserve">
<style type="text/css">
	.st0{fill:#FFFFFF;}
</style>
<g>
	<g>
		<g>
			<g id="XMLID_6_">
				<g>
					<g>
						<path class="st0" d="M151.1,122.5c-0.2,0-0.5,0-0.7-0.1L21.7,67.7c-0.7-0.3-1.2-1-1.1-1.8c0-0.8,0.5-1.4,1.2-1.7l128.1-47.1
							c0.4-0.2,0.9-0.2,1.3,0l128.1,46.1c0.7,0.3,1.2,0.9,1.2,1.7c0,0.8-0.4,1.5-1.1,1.8l-127.5,55.6
							C151.6,122.4,151.3,122.5,151.1,122.5z M27.5,66.1l123.6,52.4l122.5-53.4l-123-44.3L27.5,66.1z"/>
					</g>
					<g>
						<path class="st0" d="M150.5,283c-0.3,0-0.5-0.1-0.8-0.2L21.6,224.3c-0.7-0.3-1.1-1-1.1-1.7V66c0-1,0.8-1.9,1.9-1.9
							c1,0,1.9,0.8,1.9,1.9v155.4l126.2,57.7l126.2-57.4V65c0-1,0.8-1.9,1.9-1.9c1,0,1.9,0.8,1.9,1.9v157.9c0,0.7-0.4,1.4-1.1,1.7
							l-128.1,58.2C151,283,150.8,283,150.5,283z"/>
					</g>
					<g>
						<path class="st0" d="M150.5,283C150.5,283,150.5,283,150.5,283c-1,0-1.9-0.8-1.9-1.9l0.6-160.6c0-1,0.8-1.9,1.9-1.9
							c0,0,0,0,0,0c1,0,1.9,0.8,1.9,1.9l-0.6,160.6C152.4,282.2,151.5,283,150.5,283z"/>
					</g>
				</g>
			</g>
		</g>
		<g>
			<g>
				<path class="st0" d="M88.7,41.6"/>
			</g>
		</g>
	</g>
	<g>
		<g>
			<polygon class="st0" points="150.8,145.8 220.8,115.2 220.8,90.2 88.7,41.6 22.4,66 22.4,222.6 151.1,281.2 220.8,249.2 
				220.8,191 150.5,216.6 87,188.6 87,120.7 			"/>
		</g>
	</g>
</g>
</svg>
